<svg version="1.2" xmlns="http://www.w3.org/2000/svg" viewBox="0 0 798 259" width="798" height="259">
	<title>yogopos-logo-svg</title>
	<defs>
		<clipPath clipPathUnits="userSpaceOnUse" id="cp1">
			<path d="m-271 0h1069v259h-1069z"/>
		</clipPath>
	</defs>
	<style>
		.s0 { fill: #ffffff } 
	</style>
	<g id="Clip-Path: Clip-Path" clip-path="url(#cp1)">
		<g id="Clip-Path">
			<g id="Layer">
				<path id="Layer" fill-rule="evenodd" class="s0" d="m-19.9 128.8c-0.6 35.6-12.8 66.1-36.3 90.6-20.1 21-45.1 33.8-74.4 38.1q-10 1.5-20.1 1.5c-32.2 0-61.6-12.1-87.4-36.1-19.9-18.4-32.4-40.7-37.1-66.1-8.5-45.4 2.6-84.8 33.2-117 21.9-23.1 49.6-36.3 82.2-39.3 34.5-3.1 66.5 7.3 94.9 30.8 9.3 7.8 17.4 16.9 23.9 27.1q0.3 0.5 0.5 0.9l5.6 11-0.1 0.1-17.6 16.7-2.1-4.3c-6.1-12.6-14.7-23.9-25.3-33-10.5-9.1-22.9-16-36.2-20.1-28-8.9-58.4-6.1-83.2 7.8-48.8 27.1-68.2 87.4-44.4 137.2 24.1 50.4 83.1 73.2 134.2 52 43.5-18 66-61.6 64.7-96.4l-5.9 5.6c-10.2 9.7-20.4 19.3-30.5 29v-25.9c0-2.6 0.5-5.1 1.5-7.4 1-2.3 2.4-4.4 4.3-6.1 1.8-1.7 3.7-3.5 5.5-5.2 6.7-6.4 13.4-12.9 20-19.1 4.1-4 8.3-8.1 12.5-12.1q1.4-1.3 3-2.5c0.5-0.4 1-0.8 1.5-1.3l3.8-3.1 1.8 4.6q0.2 0.3 0.3 0.7 0.4 0.7 0.6 1.5c4.6 13.8 6.8 26.8 6.6 39.8zm-69.2-66.3c-1.4 3.1-2.6 6-3.9 8.8-12.6 24.7-25.1 49.5-38 74.2-3.1 5.9-4.6 12.5-4.5 19.2 0.2 12.1 0 24.2 0.1 36.4 0 4-1.3 5.3-5.3 5.3-5.7 0-11.6 0-17.3 0-4.3 0-5.7-1.2-5.7-5.5 0.1-11.7 0-23.5 0.3-35.3 0.2-8.6-2.7-16.2-6.5-23.8q-18.2-36.5-36.3-73.2c-0.9-1.9-1.7-3.8-2.6-6 9.9 0 19.4 0 28.9 0.1 2.4 0 3.5 2 4.4 3.9 4 8.8 8.1 17.6 12 26.5 4.9 11.1 9.6 22.2 14.4 33.4 0.2 0.3 0.4 0.7 0.8 1.4 0.6-1.4 1.2-2.6 1.7-3.8q13.1-28.7 26.3-57.5c1.3-2.8 3.2-4.3 6.3-4.3l23.6 0.2q0.6-0.1 1.3 0zm781.7 86.7c0.1 4.7-0.4 9.5-1.3 14.2-3.6 18.6-14.8 29.9-33.1 33.6-5.3 1.1-10.7 1.7-16.1 1.7-6.2 0-12.4-0.8-18.4-2.3-15.8-4-25.8-14.1-29.8-29.8-3-11.9-3-24.3 0.1-36.1 4.6-17.8 18.1-28.8 38-30.9 2.3-0.3 4.6-0.4 7.2-0.6q1.9-0.1 3.9-0.2h0.3q1.6 0.2 3.5 0.3c2.9 0.3 6.1 0.5 9.3 1.1 21.7 4 34.1 17.8 36 39.9 0.3 3.2 0.4 6.2 0.4 9.1zm-18.7-13c-2.7-11.3-9.6-18-21.4-20.2q-4.8-0.8-9.7-0.9l-0.6-0.1-2 0.1c-1.4 0.1-2.8 0.1-4.2 0.2-15 1.4-23.5 9.2-26 23.9-1.2 7-1.1 14.2 0.3 21.2 2.4 11.7 9.8 19 21.6 21.2 4.7 0.9 9.5 1.2 14.2 0.9 16-1 24.9-7.9 27.9-21.7 0.9-4 1.3-7.9 1.3-11.9 0-4.3-0.5-8.5-1.4-12.7zm-336.2-16.8c-2.4 0-4.8 0.5-7.8 0.9 9.8 22.5 7.3 38.7-8.3 53.5 7.7 4.9 12.6 11.7 13.6 21 1.6 14.1-3.9 26.1-16.9 31.8-21.5 9.5-43.5 8.8-64.8-1-10-4.7-15-13.7-16.6-24.5-0.2-1.3-0.9-3.1 0.3-3.6 3.5-1.5 7.3-0.5 11-0.7 3.6-0.2 7.1-0.9 8 4.8 1 6 5.5 10 11.1 12 12.1 4.5 24.5 4.9 36.7 0.9 10.2-3.4 14.9-12.4 12.4-22.3-1.7-6.9-5.7-9.2-12.7-7.6-12.5 2.8-25.2 2.8-37.7-0.4-22.2-5.7-33.2-23.9-29.1-47.9 3.2-18.9 14.7-29.9 34.9-32.8 11.2-1.6 22.7-1.3 33.9 1 10.3 2.2 20.9 0.6 31.4 0.9 3.1 0.1 6.2 0.1 5.1 4.3-0.9 3.4 3.6 9.6-4.5 9.7zm-35.1 48.6c9.9-3.7 14.6-11.6 14.4-24-0.2-12.4-5.1-20.2-15.4-23.4-10.1-3.1-20.9-3.1-31-0.1-6.1 1.8-10.8 5.6-13.4 11.6-8 18.1 1.4 35.3 20.8 38.1 2.5 0.4 5.2 0.3 7.8 0.5 5.7 0 11.4-0.6 16.8-2.6zm477.6 22.1c-2.8 2-5.8 3.7-9 4.8q-5.4 2-11.1 2.7-6.1 0.9-12.3 0.9c-7.2 0.1-14.3-1-21.1-3.2-12.8-4.3-20.7-12.6-23.5-24.6-0.4-2-0.6-4 0.6-5.3 0.9-1 2.4-1.4 4.5-1q1.3 0.1 2.6 0c4.8-0.6 9.5-0.2 11.1 6.9 1 4.7 5.7 7.3 8.4 8.4 11.3 4.7 22.8 5 34.1 0.7 5.8-2.2 8.9-6.4 9-12.3 0.1-7-1.8-9.5-8.4-11-5.9-1.4-12-1.9-17.9-2.5-4.1-0.3-8.3-0.7-12.4-1.3-5-0.8-10.3-1.8-15.4-3.9-7.9-3.2-13.3-9.6-14.8-17.6-1.5-7.9 1.1-16 7.3-22 7.2-7 16.2-9.1 23.2-10.1 2.7-0.4 5.4-0.6 7.6-0.7q1.3-0.1 2.2-0.1h0.2c10.1 0.2 18.4 1.1 26.2 4.7 8.9 4.1 14.6 10.6 17 19.4 0.5 2 0.9 4.2-0.4 5.6-0.9 1.1-2.5 1.4-4.8 1q-1-0.1-2 0c-4.4 0.5-9.2 0.4-11.6-6.4-1.2-3.2-4.3-5.5-10.1-7.2-8.8-2.6-18.2-2.6-27 0.1-2.6 0.7-5 2-7 3.8-3.1 2.8-4.2 6.3-3.4 10.6 0.6 3.2 2.7 5.1 7 6.3 5.7 1.5 11.8 2.1 17.7 2.6 3.1 0.3 6.4 0.5 9.6 1 5.5 0.7 10.5 1.5 15.5 2.9 7.7 2.1 16.8 6.1 18.6 17.8 2 12.8-1.3 22.3-10.2 29zm-197.9-58.7q0 4.7-0.8 9.3c-2.4 13.9-11.4 21.1-26.8 21.3-12.2 0.2-25.1 0.2-39.5 0-0.5 0-2.1 0-2.5 0.4-0.2 0.2-0.4 0.8-0.4 2.3 0.2 4.8 0.1 9.7 0.1 14.5 0 3.9 0 7.9 0.1 11.9 0 1.5-0.1 3.1-1.2 4.2-1.1 1.1-2.8 1.2-4.1 1.2h-2.4c-4.2 0-6.5-0.1-8.1-1.6-1.7-1.8-1.7-4.6-1.7-10.3 0-3.7 0-43.6 0-47.3 0-9.9 0.1-20.3-0.1-30.4 0-1.7 0.1-3.5 1.3-4.7 1.1-1.1 2.9-1.3 4.3-1.3 12.4 0.2 25 0.2 37.2 0.2q7.5 0 15 0 5.2-0.1 10.5 1.2c9.7 2.3 15.7 8.4 17.9 18 0.8 3.6 1.2 7.4 1.2 11.1zm-69.2 14.9q3 0 6 0 3.7 0 7.2 0c8.8 0.1 17.9 0.1 26.7-0.4 8-0.4 11.9-4.9 11.9-13.8q0-0.5 0-1c-0.3-9.4-4.2-13.6-12.9-14-4.3-0.2-8.6-0.2-12.7-0.1q-2.9 0-5.8 0h-1.5v-0.1c-4.6 0-13.3 0-18 0-1.2 0-1.5 0.1-1.5 0.1 0 0-0.2 0.2-0.2 1.2 0.1 7.2 0.1 14.6 0.1 21.7v5.2c0 0.9 0 1.1 0.1 1.1q0.3 0.2 0.6 0.1zm-291.6 17.2c-3.9 20-17.5 31.3-39.2 33.1-3.1 0.3-6.1 0.4-10 0.6-3.3-0.3-7.5-0.4-11.6-1-30.5-4.5-39.7-26.2-36.7-55 2.4-23.5 15.7-35.7 39.3-38.2 9.9-1 19.7-0.8 29.3 1.7 15 4 24.6 13.4 28.2 28.8 2.4 9.8 2.6 20 0.7 30zm-18.8-25.7c-2.5-9.7-8.9-15.3-18.5-17.5-7.5-1.7-15.3-1.7-22.7 0.2-6.1 1.5-11.7 4.3-14.8 10-6.4 12-6.7 24.5-0.9 36.6 5.3 11.4 16.2 13 27.3 13.1 16.9 0.1 26.3-5.8 29.7-19 1.9-7.7 1.9-15.8-0.1-23.4zm247.4 32.3c-5.2 17.9-19.7 24.6-36.9 26.5-3.1 0.3-6.2 0.4-9.7 0.5-3.4-0.2-7.4-0.1-11.3-0.7-23.9-3.5-36.3-16.8-37.8-41.1-0.4-5.7-0.2-11.4 0.6-17 3-19.5 13.5-30.4 32.8-34.3 11.9-2.5 24.1-2.2 35.8 0.8 6.4 1.6 12.5 4.3 17.1 9.2 15.3 16.6 15.1 36.3 9.4 56.1zm-18.1-35.7c-4.1-11.7-14.4-14.7-25.3-15.1-11.3-0.5-23.1 0.4-29.5 11.6-6.8 11.9-6.6 25-0.3 37.1 5.5 10.8 16.3 12.1 25.3 12.2 11-0.1 20.2-1 26.2-8.9 8.5-11.3 8.1-24.2 3.6-36.9zm-421.2-64.5c6.4 0 12.7 0.1 19 0 3.1 0 3.9 2.5 5.1 4.4q18.3 27.4 36.4 54.7c2.5-0.5 2.9-2.7 4-4.2 10.9-16.4 21.9-32.8 32.6-49.4 2.7-4.2 5.5-6.1 10.5-5.6 4.8 0.5 9.6 0.1 15.7 0.1-2.2 3.3-3.8 5.8-5.4 8.2q-22.1 33.4-44.3 66.8c-2 2.9-3.1 6.3-3 9.8 0.2 11.6 0 23.3 0.2 34.9 0 3.6-0.8 4.8-4.6 4.9-14.9 0.2-16.1 0.3-14.7-14.4 2.2-21.7-3.6-39.9-17.1-57-11.6-14.7-21-31.2-31.3-47-1.2-1.8-2.9-3.3-3.1-6.2z"/>
			</g>
		</g>
	</g>
</svg>